<?xml version="1.0" encoding="UTF-8"?>
<svg version="1.1" xmlns="http://www.w3.org/2000/svg" width="1080" height="1080">
<path d="M0 0 C356.4 0 712.8 0 1080 0 C1080 356.4 1080 712.8 1080 1080 C723.6 1080 367.2 1080 0 1080 C0 723.6 0 367.2 0 0 Z " fill="#000000" transform="translate(0,0)"/>
<path d="M0 0 C3.09840643 1.27581441 4.36494359 3.0719472 6.125 5.875 C5.88607183 9.95384525 3.38155065 11.95452723 0.5625 14.6875 C-0.26378906 15.49832031 -1.09007812 16.30914062 -1.94140625 17.14453125 C-4.14316606 19.23051121 -6.41567008 21.22078475 -8.7109375 23.203125 C-12.96419273 26.90245858 -16.96435341 30.81623131 -20.9375 34.8125 C-21.60587891 35.47701172 -22.27425781 36.14152344 -22.96289062 36.82617188 C-26.84752135 40.7183529 -30.53997521 44.7189426 -34.1315918 48.88208008 C-37.68799414 52.94746481 -41.43785098 56.83738276 -45.15234375 60.7578125 C-45.74917969 61.39203125 -46.34601563 62.02625 -46.9609375 62.6796875 C-47.4976709 63.24671387 -48.0344043 63.81374023 -48.58740234 64.39794922 C-49.97383887 65.86381979 -49.97383887 65.86381979 -50.875 67.875 C-50.02421875 68.19791016 -50.02421875 68.19791016 -49.15625 68.52734375 C-45.1806348 70.87595204 -42.85264051 74.80855214 -40.09375 78.44140625 C-37.90600682 80.84099076 -37.0377556 81.58028868 -33.875 81.875 C-34.638125 82.638125 -35.40125 83.40125 -36.1875 84.1875 C-39.7938991 88.43936257 -40.70707739 93.53863817 -41.875 98.875 C-39.27047729 98.73413398 -36.66649803 98.58751536 -34.0625 98.4375 C-33.32451172 98.39818359 -32.58652344 98.35886719 -31.82617188 98.31835938 C-28.64428658 98.13118965 -25.91337622 97.88779207 -22.875 96.875 C-20.54200175 96.83545766 -18.20791811 96.83098268 -15.875 96.875 C-15.875 98.855 -15.875 100.835 -15.875 102.875 C-16.84824219 102.7203125 -17.82148438 102.565625 -18.82421875 102.40625 C-23.86235331 101.68561025 -28.91852133 101.50139463 -33.99804688 101.26953125 C-39.66741071 100.97879464 -39.66741071 100.97879464 -41.875 99.875 C-41.50539537 107.6366973 -39.72910023 113.61684087 -34.421875 119.48046875 C-28.12652825 125.12971412 -20.91898079 125.33110094 -12.875 125.875 C-15.875 127.875 -15.875 127.875 -17.875 128.875 C-17.85405273 129.57882812 -17.83310547 130.28265625 -17.81152344 131.0078125 C-17.22030393 153.93814866 -19.23076548 174.96743033 -34.75 193 C-44.68016149 203.12755002 -57.63100715 208.85799932 -71.76586914 209.16772461 C-86.1638486 209.27685124 -97.15851959 206.66707709 -108.875 197.875 C-109.52082031 197.39804687 -110.16664063 196.92109375 -110.83203125 196.4296875 C-118.05504369 190.20126593 -124.26616791 177.92107431 -125.08374023 168.45922852 C-126.03151731 142.78118984 -119.51505424 123.84060537 -106.875 101.875 C-107.37837891 102.38361572 -107.88175781 102.89223145 -108.40039062 103.41625977 C-110.72251978 105.75940728 -113.0487277 108.09846602 -115.375 110.4375 C-116.16648437 111.23736328 -116.95796875 112.03722656 -117.7734375 112.86132812 C-122.09415371 117.19975219 -126.48284437 121.37799816 -131.12841797 125.36694336 C-133.37483046 127.30657013 -135.52382155 129.34394632 -137.6875 131.375 C-145.66585128 138.5567417 -154.75096689 145.17427543 -165.6875 146.25 C-168.875 145.875 -168.875 145.875 -170.53125 144.64453125 C-172.82130179 141.62885258 -172.58617536 138.90723106 -172.46484375 135.21875 C-169.3310204 117.45349977 -153.92046439 101.45344954 -141.875 88.875 C-146.31962039 92.14043539 -150.66110882 95.49985381 -154.93847656 98.97973633 C-187.8111827 125.64705539 -230.65920246 153.67956991 -274.875 150.875 C-288.54929358 149.40193648 -300.56523686 145.53246218 -309.875 134.875 C-315.62951642 126.70002719 -317.4029677 118.76048799 -315.875 108.875 C-313.23112006 100.27079424 -308.1560363 95.1684123 -300.375 91 C-295.30688158 89.37096194 -291.69855485 89.19563643 -286.6875 91.0625 C-282.94577591 93.4738333 -280.50966986 95.4405201 -279.3515625 99.8828125 C-278.97664022 103.59325024 -279.36494241 106.01736854 -281.28515625 109.24609375 C-286.16885356 115.1927724 -291.9714093 118.63894186 -298.875 121.875 C-298.25333671 125.6426563 -297.60898982 127.9713819 -294.69360352 130.61743164 C-286.54338177 136.25332803 -277.93947999 137.68347776 -268.25 137.4375 C-266.54614136 137.40934204 -266.54614136 137.40934204 -264.80786133 137.38061523 C-215.51091687 135.96177241 -174.15303645 98.57446481 -138.09228516 68.70849609 C-135.81896917 66.82866753 -133.54109962 64.95450007 -131.26171875 63.08203125 C-130.50608643 62.46110596 -129.7504541 61.84018066 -128.97192383 61.20043945 C-127.53849498 60.02279441 -126.10476098 58.84552066 -124.6706543 57.66870117 C-120.3591766 54.12276851 -116.10258997 50.52061005 -111.875 46.875 C-114.39474253 46.22464629 -116.91565935 45.57962507 -119.4375 44.9375 C-120.14197266 44.75509766 -120.84644531 44.57269531 -121.57226562 44.38476562 C-122.27158203 44.20751953 -122.97089844 44.03027344 -123.69140625 43.84765625 C-124.32506104 43.68531494 -124.95871582 43.52297363 -125.61157227 43.35571289 C-157.62014173 36.55764652 -194.82844797 43.53210268 -223.07421875 59.70703125 C-225.875 60.875 -225.875 60.875 -227.984375 60.40625 C-230.52519379 58.34839676 -232.232515 56.03849741 -234.125 53.375 C-234.83140625 52.3953125 -235.5378125 51.415625 -236.265625 50.40625 C-237.875 47.875 -237.875 47.875 -237.875 45.875 C-228.35989469 41.52663352 -218.99240223 37.64137571 -208.875 34.875 C-207.98425781 34.61074219 -207.09351563 34.34648437 -206.17578125 34.07421875 C-173.60191744 25.01301555 -132.95173236 25.33305747 -100.87939453 36.57446289 C-98.85665182 37.07835199 -98.85665182 37.07835199 -97.16186523 35.9855957 C-96.59153564 35.51210693 -96.02120605 35.03861816 -95.43359375 34.55078125 C-94.77697754 34.02234619 -94.12036133 33.49391113 -93.44384766 32.94946289 C-92.74050293 32.36801514 -92.0371582 31.78656738 -91.3125 31.1875 C-59.50988193 5.875 -59.50988193 5.875 -49.875 5.875 C-46.85182721 11.0748572 -46.85182721 11.0748572 -46.94140625 14.16796875 C-48.25495412 17.97670798 -50.71367457 20.56653965 -53.375 23.5 C-54.47240697 24.74256056 -55.56875058 25.98606102 -56.6640625 27.23046875 C-57.48052246 28.15158447 -57.48052246 28.15158447 -58.31347656 29.09130859 C-60.52341951 31.61567432 -62.63740155 34.20600054 -64.75 36.8125 C-68.06236219 40.8911099 -71.43391261 44.90451455 -74.875 48.875 C-73.03402525 49.59072755 -73.03402525 49.59072755 -70.875 49.875 C-68.4648349 48.08039168 -66.36799763 46.29533929 -64.1875 44.25 C-56.10295664 36.9576481 -47.61275726 30.36157267 -38.875 23.875 C-38.28928223 23.43591309 -37.70356445 22.99682617 -37.10009766 22.54443359 C-6.37007003 -0.42467134 -6.37007003 -0.42467134 0 0 Z " fill="#EE220E" transform="translate(387.875,143.125)"/>
<path d="M0 0 C4.00041081 3.34596572 7.86819886 6.68838569 11.375 10.5625 C12.04273438 11.28566406 12.71046875 12.00882813 13.3984375 12.75390625 C15.21900596 15.3071425 15.81142373 16.87640329 16 20 C15.22265625 22.39453125 15.22265625 22.39453125 14.0625 24.8125 C11.16056497 31.65783106 11.15933345 36.20150508 13.6875 43.1875 C16.53439341 49.71038209 20.88812638 53.4551133 27 57 C29.32354742 57.70001164 31.65620292 58.37110882 34 59 C34.05875981 63.12493872 34.09384938 67.24976768 34.125 71.375 C34.14175781 72.53128906 34.15851563 73.68757813 34.17578125 74.87890625 C34.27269953 92.03344205 29.60936935 108.05746337 17.625 120.75 C7.46543047 130.2925024 -5.039353 133.64680176 -18.80224609 133.47241211 C-29.85566701 133.00943499 -38.56313503 129.20095893 -46.4921875 121.5625 C-52.53475135 114.98361391 -54.39616206 106.04715386 -54.26953125 97.3671875 C-51.33202909 60.66969677 -23.50242262 26.38641953 0 0 Z " fill="#010000" transform="translate(329,212)"/>
<path d="M0 0 C3.09840643 1.27581441 4.36494359 3.0719472 6.125 5.875 C5.88607183 9.95384525 3.38155065 11.95452723 0.5625 14.6875 C-0.26378906 15.49832031 -1.09007812 16.30914062 -1.94140625 17.14453125 C-4.14316606 19.23051121 -6.41567008 21.22078475 -8.7109375 23.203125 C-12.96419273 26.90245858 -16.96435341 30.81623131 -20.9375 34.8125 C-21.60587891 35.47701172 -22.27425781 36.14152344 -22.96289062 36.82617188 C-26.84752135 40.7183529 -30.53997521 44.7189426 -34.1315918 48.88208008 C-37.68799414 52.94746481 -41.43785098 56.83738276 -45.15234375 60.7578125 C-45.74917969 61.39203125 -46.34601563 62.02625 -46.9609375 62.6796875 C-47.4976709 63.24671387 -48.0344043 63.81374023 -48.58740234 64.39794922 C-49.97383887 65.86381979 -49.97383887 65.86381979 -50.875 67.875 C-50.32328125 68.07867187 -49.7715625 68.28234375 -49.203125 68.4921875 C-45.98431571 70.4040306 -43.92834367 73.11412464 -41.625 76 C-41.16609375 76.56332031 -40.7071875 77.12664062 -40.234375 77.70703125 C-39.10825047 79.09122599 -37.99075615 80.48243411 -36.875 81.875 C-38.25 83.375 -38.25 83.375 -39.875 84.875 C-40.535 84.875 -41.195 84.875 -41.875 84.875 C-43.3203125 83.1875 -43.3203125 83.1875 -45 80.875 C-48.58347358 76.11463825 -52.56815953 71.98048169 -56.875 67.875 C-55.23522432 63.83862909 -52.39197636 60.98378659 -49.4375 57.875 C-48.45917132 56.8337692 -47.48133104 55.79207935 -46.50390625 54.75 C-45.94566162 54.15799805 -45.38741699 53.56599609 -44.81225586 52.95605469 C-43.38876348 51.42689917 -41.98022482 49.88378826 -40.58032227 48.33300781 C-32.56927733 39.47240902 -24.15847291 31.04409982 -15.6875 22.625 C-14.24390469 21.18643464 -12.80054381 19.74763399 -11.35742188 18.30859375 C-7.86597048 14.8280182 -4.37138804 11.35061615 -0.875 7.875 C-1.205 7.215 -1.535 6.555 -1.875 5.875 C-17.73847364 15.10590061 -32.61849398 25.31602702 -46.875 36.875 C-47.83019531 37.64714844 -48.78539062 38.41929687 -49.76953125 39.21484375 C-53.58754434 42.32278288 -57.38911499 45.43541704 -61.08203125 48.69140625 C-61.89003174 49.39317993 -61.89003174 49.39317993 -62.71435547 50.10913086 C-64.23296018 51.4307763 -65.73987365 52.76582004 -67.24609375 54.1015625 C-69.875 55.875 -69.875 55.875 -71.95703125 55.80859375 C-74.11241485 54.75943554 -76.11431534 53.61944503 -78.125 52.3125 C-78.83140625 51.85746094 -79.5378125 51.40242188 -80.265625 50.93359375 C-81.06226563 50.40958984 -81.06226563 50.40958984 -81.875 49.875 C-80.23079075 45.78909079 -77.30684542 42.94082371 -74.3125 39.8125 C-66.28114525 31.26855691 -59.01413598 22.17194557 -51.875 12.875 C-62.88348436 18.08611686 -72.94778677 23.96616889 -82.53125 31.53125 C-83.36052002 32.17376709 -84.18979004 32.81628418 -85.04418945 33.47827148 C-86.69265475 34.7607663 -88.32494448 36.06439532 -89.93823242 37.39086914 C-93.80573633 40.38791036 -96.48973893 42.37795278 -101.50390625 41.89453125 C-102.97037594 41.59805107 -104.42918193 41.25976478 -105.875 40.875 C-107.07640625 40.58882812 -108.2778125 40.30265625 -109.515625 40.0078125 C-110.70671875 39.67523438 -111.8978125 39.34265625 -113.125 39 C-151.75684743 28.98960806 -193.09158957 32.7350107 -229.875 47.875 C-229.565625 48.49375 -229.25625 49.1125 -228.9375 49.75 C-228.25 51.125 -227.5625 52.5 -226.875 53.875 C-221.94199453 53.21922348 -217.83419243 51.14186273 -213.375 49.0625 C-193.58886319 40.09929468 -173.58711608 36.11086966 -151.9375 36.375 C-151.06646637 36.37954193 -150.19543274 36.38408386 -149.29800415 36.38876343 C-136.43086089 36.46738622 -124.29666111 37.29108744 -111.875 40.875 C-110.68003906 41.18308594 -109.48507812 41.49117187 -108.25390625 41.80859375 C-105.77791975 42.45463767 -103.32367079 43.1336593 -100.875 43.875 C-104.7417922 47.84471062 -108.80158196 51.50996367 -113 55.125 C-113.66306152 55.69782715 -114.32612305 56.2706543 -115.00927734 56.86083984 C-119.6598108 60.8644988 -124.37467535 64.77964858 -129.14453125 68.640625 C-131.6406448 70.68322436 -134.10100495 72.75984291 -136.55322266 74.85449219 C-143.23170378 80.55724063 -150.05020889 86.04710072 -156.99755859 91.41845703 C-158.9392356 92.9248348 -160.87007314 94.44444072 -162.80078125 95.96484375 C-183.35392769 112.04447056 -205.17121351 127.03336701 -229.875 135.875 C-230.50535156 136.10558105 -231.13570313 136.33616211 -231.78515625 136.57373047 C-250.82676075 143.50275877 -272.19151632 146.40956391 -291.59765625 138.80859375 C-296.64243211 136.25672883 -301.12213851 132.90466423 -303.875 127.875 C-304.68716342 124.73228068 -304.47623064 123.20909717 -303.875 119.875 C-301.68575925 117.39386049 -299.24258675 116.09449846 -296.421875 114.41015625 C-295.54015625 113.88292969 -294.6584375 113.35570312 -293.75 112.8125 C-292.90179688 112.32652344 -292.05359375 111.84054688 -291.1796875 111.33984375 C-289.02379946 109.96957593 -287.41911983 108.90413183 -285.875 106.875 C-285.40219746 104.66597088 -285.40219746 104.66597088 -285.5 102.3125 C-285.49226563 101.52746094 -285.48453125 100.74242187 -285.4765625 99.93359375 C-285.67378906 98.91458984 -285.67378906 98.91458984 -285.875 97.875 C-289.9410829 95.16427807 -293.10188974 95.23964423 -297.875 95.875 C-303.19667279 97.70075908 -306.18281209 101.00835263 -308.875 105.875 C-311.02515269 112.32545806 -311.04010973 120.3796708 -308.88671875 126.83984375 C-303.96866216 135.83088242 -295.48365154 140.99240454 -285.875 143.875 C-270.55680034 147.21327844 -253.69285638 145.58944632 -238.875 140.875 C-238.17858398 140.66069336 -237.48216797 140.44638672 -236.76464844 140.22558594 C-225.91240219 136.83518431 -215.87486859 132.25026779 -205.875 126.875 C-205.2164502 126.52566406 -204.55790039 126.17632812 -203.87939453 125.81640625 C-188.94319849 117.85432371 -175.26585709 108.20258913 -161.875 97.875 C-161.32634277 97.45250977 -160.77768555 97.03001953 -160.21240234 96.59472656 C-152.63616606 90.74647876 -145.24475812 84.71687055 -137.96875 78.5 C-135.0794868 76.03584036 -132.13981542 73.63839 -129.1875 71.25 C-124.80279272 67.68385602 -120.60775345 63.95274675 -116.4296875 60.1484375 C-112.03702819 56.23937371 -107.47605986 52.53526806 -102.875 48.875 C-101.82699219 47.99521484 -101.82699219 47.99521484 -100.7578125 47.09765625 C-98.875 45.875 -98.875 45.875 -95.625 46.1875 C-94.7175 46.414375 -93.81 46.64125 -92.875 46.875 C-96.19458985 51.12822449 -99.7328516 54.59376869 -103.8359375 58.08984375 C-105.76983032 59.78292616 -107.57668496 61.53973328 -109.375 63.375 C-111.66515137 65.70623032 -114.00955601 67.88468564 -116.5 70 C-125.27596494 77.57846485 -133.41039474 86.01179768 -140.875 94.875 C-141.70386719 95.81472656 -142.53273437 96.75445312 -143.38671875 97.72265625 C-159.74813576 115.82522093 -159.74813576 115.82522093 -167.1875 138.0625 C-167.084375 138.990625 -166.98125 139.91875 -166.875 140.875 C-156.5945841 140.41809263 -148.66712293 134.17293827 -141.45703125 127.31640625 C-139.42648391 125.39644848 -137.3704477 123.57283822 -135.25073242 121.75561523 C-130.7294788 117.80760417 -126.50041273 113.61003888 -122.28125 109.34375 C-121.49028931 108.54900269 -120.69932861 107.75425537 -119.88439941 106.9354248 C-117.37880477 104.41771568 -114.87649142 101.89678554 -112.375 99.375 C-109.0758832 96.04911811 -105.77335626 92.72667664 -102.46875 89.40625 C-101.72580688 88.65500854 -100.98286377 87.90376709 -100.21740723 87.12976074 C-96.1595269 83.05311618 -92.01548182 79.15555525 -87.63835144 75.42256165 C-84.28648693 72.48088092 -81.247817 69.21639533 -78.18945312 65.97460938 C-75.29050178 62.99163046 -72.87912447 61.08282548 -68.875 59.875 C-68.875 63.875 -68.875 63.875 -70.89453125 66.1796875 C-71.81621094 67.02789062 -72.73789062 67.87609375 -73.6875 68.75 C-80.1606361 74.92426264 -85.52633202 81.72448969 -90.875 88.875 C-91.30167969 89.43558105 -91.72835937 89.99616211 -92.16796875 90.57373047 C-108.35664749 111.89920151 -123.37885207 139.17372036 -119.875 166.875 C-117.6449447 178.32038991 -112.59553343 188.57044919 -103.25 195.75 C-90.58170496 203.7361234 -76.48885065 204.43148844 -61.875 202.875 C-57.38501075 201.80919447 -53.77975011 200.31223641 -49.875 197.875 C-49.15828125 197.44058594 -48.4415625 197.00617188 -47.703125 196.55859375 C-38.34670358 190.19405127 -31.55062542 181.52032346 -27.875 170.875 C-27.64796387 170.22450684 -27.42092773 169.57401367 -27.18701172 168.90380859 C-22.68381766 155.54646421 -22.2611548 142.87633684 -22.875 128.875 C-20.9375 128.3125 -20.9375 128.3125 -18.875 127.875 C-15.87610229 130.87389771 -17.5625 140.49155197 -17.5625 144.53466797 C-17.79223117 163.70938912 -23.67885896 181.70879041 -37.3046875 195.60546875 C-50.50059173 207.25717143 -65.46114085 209.68169824 -82.42529297 209.04980469 C-92.50303297 208.33068352 -100.92179297 203.84310705 -108.875 197.875 C-109.52082031 197.39804687 -110.16664063 196.92109375 -110.83203125 196.4296875 C-118.05504369 190.20126593 -124.26616791 177.92107431 -125.08374023 168.45922852 C-126.03151731 142.78118984 -119.51505424 123.84060537 -106.875 101.875 C-107.37837891 102.38361572 -107.88175781 102.89223145 -108.40039062 103.41625977 C-110.72251978 105.75940728 -113.0487277 108.09846602 -115.375 110.4375 C-116.16648437 111.23736328 -116.95796875 112.03722656 -117.7734375 112.86132812 C-122.09415371 117.19975219 -126.48284437 121.37799816 -131.12841797 125.36694336 C-133.37483046 127.30657013 -135.52382155 129.34394632 -137.6875 131.375 C-145.66585128 138.5567417 -154.75096689 145.17427543 -165.6875 146.25 C-168.875 145.875 -168.875 145.875 -170.53125 144.64453125 C-172.82130179 141.62885258 -172.58617536 138.90723106 -172.46484375 135.21875 C-169.3310204 117.45349977 -153.92046439 101.45344954 -141.875 88.875 C-146.31962039 92.14043539 -150.66110882 95.49985381 -154.93847656 98.97973633 C-187.8111827 125.64705539 -230.65920246 153.67956991 -274.875 150.875 C-288.54929358 149.40193648 -300.56523686 145.53246218 -309.875 134.875 C-315.62951642 126.70002719 -317.4029677 118.76048799 -315.875 108.875 C-313.23112006 100.27079424 -308.1560363 95.1684123 -300.375 91 C-295.30688158 89.37096194 -291.69855485 89.19563643 -286.6875 91.0625 C-282.94577591 93.4738333 -280.50966986 95.4405201 -279.3515625 99.8828125 C-278.97664022 103.59325024 -279.36494241 106.01736854 -281.28515625 109.24609375 C-286.16885356 115.1927724 -291.9714093 118.63894186 -298.875 121.875 C-298.25333671 125.6426563 -297.60898982 127.9713819 -294.69360352 130.61743164 C-286.54338177 136.25332803 -277.93947999 137.68347776 -268.25 137.4375 C-266.54614136 137.40934204 -266.54614136 137.40934204 -264.80786133 137.38061523 C-215.51091687 135.96177241 -174.15303645 98.57446481 -138.09228516 68.70849609 C-135.81896917 66.82866753 -133.54109962 64.95450007 -131.26171875 63.08203125 C-130.50608643 62.46110596 -129.7504541 61.84018066 -128.97192383 61.20043945 C-127.53849498 60.02279441 -126.10476098 58.84552066 -124.6706543 57.66870117 C-120.3591766 54.12276851 -116.10258997 50.52061005 -111.875 46.875 C-114.39474253 46.22464629 -116.91565935 45.57962507 -119.4375 44.9375 C-120.14197266 44.75509766 -120.84644531 44.57269531 -121.57226562 44.38476562 C-122.27158203 44.20751953 -122.97089844 44.03027344 -123.69140625 43.84765625 C-124.32506104 43.68531494 -124.95871582 43.52297363 -125.61157227 43.35571289 C-157.62014173 36.55764652 -194.82844797 43.53210268 -223.07421875 59.70703125 C-225.875 60.875 -225.875 60.875 -227.984375 60.40625 C-230.52519379 58.34839676 -232.232515 56.03849741 -234.125 53.375 C-234.83140625 52.3953125 -235.5378125 51.415625 -236.265625 50.40625 C-237.875 47.875 -237.875 47.875 -237.875 45.875 C-228.35989469 41.52663352 -218.99240223 37.64137571 -208.875 34.875 C-207.98425781 34.61074219 -207.09351563 34.34648437 -206.17578125 34.07421875 C-173.60191744 25.01301555 -132.95173236 25.33305747 -100.87939453 36.57446289 C-98.85665182 37.07835199 -98.85665182 37.07835199 -97.16186523 35.9855957 C-96.59153564 35.51210693 -96.02120605 35.03861816 -95.43359375 34.55078125 C-94.77697754 34.02234619 -94.12036133 33.49391113 -93.44384766 32.94946289 C-92.74050293 32.36801514 -92.0371582 31.78656738 -91.3125 31.1875 C-59.50988193 5.875 -59.50988193 5.875 -49.875 5.875 C-46.85182721 11.0748572 -46.85182721 11.0748572 -46.94140625 14.16796875 C-48.25495412 17.97670798 -50.71367457 20.56653965 -53.375 23.5 C-54.47240697 24.74256056 -55.56875058 25.98606102 -56.6640625 27.23046875 C-57.48052246 28.15158447 -57.48052246 28.15158447 -58.31347656 29.09130859 C-60.52341951 31.61567432 -62.63740155 34.20600054 -64.75 36.8125 C-68.06236219 40.8911099 -71.43391261 44.90451455 -74.875 48.875 C-73.03402525 49.59072755 -73.03402525 49.59072755 -70.875 49.875 C-68.4648349 48.08039168 -66.36799763 46.29533929 -64.1875 44.25 C-56.10295664 36.9576481 -47.61275726 30.36157267 -38.875 23.875 C-38.28928223 23.43591309 -37.70356445 22.99682617 -37.10009766 22.54443359 C-6.37007003 -0.42467134 -6.37007003 -0.42467134 0 0 Z " fill="#920000" transform="translate(387.875,143.125)"/>
<path d="M0 0 C0.99 0.495 0.99 0.495 2 1 C0.59879754 4.17283366 -1.05145758 6.29168993 -3.51245117 8.72363281 C-4.23047409 9.43827698 -4.94849701 10.15292114 -5.6882782 10.88922119 C-6.46532608 11.65280945 -7.24237396 12.41639771 -8.04296875 13.203125 C-9.24570183 14.39805573 -9.24570183 14.39805573 -10.47273254 15.61712646 C-13.03962418 18.1662075 -15.61307558 20.7085286 -18.1875 23.25 C-20.74324392 25.77799819 -23.2974739 28.30747833 -25.84870911 30.84002686 C-27.4353202 32.41452445 -29.02459594 33.98634314 -30.61698914 35.55499268 C-34.74895488 39.65018258 -38.70543915 43.83046016 -42.49447632 48.24578857 C-44.75543718 50.88022297 -47.09747487 53.4355889 -49.4375 56 C-50.30246094 56.94875 -51.16742188 57.8975 -52.05859375 58.875 C-52.69925781 59.57625 -53.33992188 60.2775 -54 61 C-52.48771554 64.59678466 -50.36327453 66.81419979 -47.5625 69.5 C-44.77210299 72.18466533 -42.13721179 74.75638596 -40 78 C-40 78.66 -40 79.32 -40 80 C-38.02 78.68 -36.04 77.36 -34 76 C-33.34 76.33 -32.68 76.66 -32 77 C-32.763125 77.763125 -33.52625 78.52625 -34.3125 79.3125 C-37.9188991 83.56436257 -38.83207739 88.66363817 -40 94 C-37.39547729 93.85913398 -34.79149803 93.71251536 -32.1875 93.5625 C-31.44951172 93.52318359 -30.71152344 93.48386719 -29.95117188 93.44335938 C-26.76928658 93.25618965 -24.03837622 93.01279207 -21 92 C-18.66700175 91.96045766 -16.33291811 91.95598268 -14 92 C-14 93.98 -14 95.96 -14 98 C-14.97324219 97.8453125 -15.94648438 97.690625 -16.94921875 97.53125 C-21.98735331 96.81061025 -27.04352133 96.62639463 -32.12304688 96.39453125 C-37.79241071 96.10379464 -37.79241071 96.10379464 -40 95 C-39.63039537 102.7616973 -37.85410023 108.74184087 -32.546875 114.60546875 C-26.25152825 120.25471412 -19.04398079 120.45610094 -11 121 C-14.44450737 123.29633824 -16.93812283 123.54016485 -21 124 C-20.76095947 124.86999634 -20.76095947 124.86999634 -20.51708984 125.75756836 C-16.78959896 141.92234823 -21.48535165 161.07731137 -29.2734375 175.35546875 C-34.13698502 182.80483905 -40.37010054 189.37540266 -48 194 C-48.77859375 194.48597656 -49.5571875 194.97195313 -50.359375 195.47265625 C-61.89395618 201.45663695 -77.88224996 200.8030039 -90.25 197.5 C-100.65090417 193.57564829 -108.84160029 186.87465087 -114 177 C-121.19896574 161.00840435 -120.04622628 146.34657452 -115 130 C-114.66097656 128.85015625 -114.32195312 127.7003125 -113.97265625 126.515625 C-108.90976967 110.87653052 -99.89968382 96.99231232 -90 84 C-89.33355469 83.12085938 -88.66710937 82.24171875 -87.98046875 81.3359375 C-82.07457547 73.7581111 -75.60017409 66.50499807 -68.734375 59.78125 C-66.903369 58.09447499 -66.903369 58.09447499 -66 55.875 C-65 54 -65 54 -63.25390625 53.19921875 C-60.23064276 51.59065395 -58.30030491 49.41165948 -55.9375 46.9375 C-51.4701149 42.35138541 -46.80459423 38.22170174 -41.7890625 34.23046875 C-38.95174421 31.96140889 -36.19819637 29.6114221 -33.4375 27.25 C-26.23045776 21.21729841 -18.58161579 15.80567115 -10.91601562 10.37524414 C-8.92249439 8.94436938 -6.95820972 7.47873151 -5 6 C-5.66 6 -6.32 6 -7 6 C-7 5.34 -7 4.68 -7 4 C-1.7265625 0.77734375 -1.7265625 0.77734375 0 0 Z M-57 64 C-81.14797109 88.86782931 -110.11268852 127.69838414 -111.375 163.75 C-111.05076402 173.75710135 -107.63581144 181.71481125 -100.375 188.625 C-96.03028524 192.30254882 -91.39225979 194.29428517 -86 196 C-85.40445313 196.19207031 -84.80890625 196.38414062 -84.1953125 196.58203125 C-71.25374832 199.04599454 -56.75765358 197.07911533 -45.6875 189.875 C-36.84398262 183.03872834 -30.89369338 175.47004951 -27 165 C-26.53980469 163.78763672 -26.53980469 163.78763672 -26.0703125 162.55078125 C-22.86349862 153.55643184 -22.87029468 145.03845009 -22.9375 135.5625 C-22.94201172 134.35400391 -22.94652344 133.14550781 -22.95117188 131.90039062 C-22.96289855 128.93354211 -22.97931104 125.9667973 -23 123 C-23.75998291 122.73880371 -24.51996582 122.47760742 -25.30297852 122.20849609 C-26.29740967 121.85867676 -27.29184082 121.50885742 -28.31640625 121.1484375 C-29.30326416 120.80474121 -30.29012207 120.46104492 -31.30688477 120.10693359 C-37.75333229 117.4572923 -41.55249988 111.32925028 -44.25 105.125 C-46.01962289 97.75157131 -44.99560355 93.10194814 -41.77734375 86.39453125 C-40.78649483 83.34231824 -40.88591812 82.01806606 -42 79 C-43.71695717 76.81478179 -45.39576654 74.86364196 -47.3125 72.875 C-47.79912109 72.35035156 -48.28574219 71.82570313 -48.78710938 71.28515625 C-51.34690821 68.56343205 -53.92075497 66.12109515 -57 64 Z " fill="#EF220E" transform="translate(386,148)"/>
<path d="M0 0 C0.99 0.495 0.99 0.495 2 1 C2 1.99 2 2.98 2 4 C0.234375 5.65625 0.234375 5.65625 -2.25 7.5 C-7.04453198 11.1812717 -11.4831263 15.10171846 -15.88769531 19.23046875 C-23.14146326 26 -23.14146326 26 -28 26 C-28.33 26.66 -28.66 27.32 -29 28 C-29.74378906 28.12761719 -30.48757813 28.25523437 -31.25390625 28.38671875 C-34.67747413 29.15129934 -36.27814291 30.53831944 -38.9375 32.8125 C-39.89914062 33.6271875 -40.86078125 34.441875 -41.8515625 35.28125 C-42.901266 36.18724015 -43.95073774 37.09349887 -45 38 C-46.11136045 38.94864199 -47.22335444 39.89654221 -48.3359375 40.84375 C-53.07952349 44.8902836 -57.80286307 48.95999327 -62.51171875 53.046875 C-69.93135029 59.47092425 -77.50426789 65.63651204 -85.26318359 71.64550781 C-86.98431212 72.98776548 -88.69123758 74.3461409 -90.39453125 75.7109375 C-119.09129879 98.66011717 -149.92375332 117.74311255 -186 126 C-186.62100586 126.176521 -187.24201172 126.35304199 -187.88183594 126.53491211 C-201.93824713 129.62129562 -219.4810661 128.04091951 -231.875 120.8125 C-236.6588128 117.55426098 -240.05730203 113.97285197 -243 109 C-243.37382812 108.41347656 -243.74765625 107.82695312 -244.1328125 107.22265625 C-245.39171346 103.99601369 -245.30216769 101.07599123 -245.3125 97.625 C-245.32925781 96.33851563 -245.34601563 95.05203125 -245.36328125 93.7265625 C-244.72494448 87.1784627 -241.85125414 83.27372389 -237 79 C-233.14124811 75.89156098 -229.90865592 75.51379798 -225.09375 75.73046875 C-223 76 -223 76 -220.4375 76.9375 C-218.40441508 79.85453489 -218.25732311 82.21252203 -218.43359375 85.7265625 C-219.91528669 91.67377141 -226.50348203 94.35879227 -231.375 97.3125 C-232.65503906 98.04919922 -232.65503906 98.04919922 -233.9609375 98.80078125 C-235.92438525 99.84070418 -235.92438525 99.84070418 -237 101 C-237.57396993 105.75575081 -237.65632347 108.80584862 -234.6875 112.6875 C-225.65055711 121.9572447 -211.99621142 123.14940147 -199.75 123.3125 C-178.17003606 123.17324345 -158.73488646 115.08112951 -140 105 C-138.87722656 104.40832031 -137.75445312 103.81664062 -136.59765625 103.20703125 C-120.67062608 94.49083854 -106.07511673 83.41617854 -92 72 C-90.68115125 70.93860117 -89.36213405 69.87741163 -88.04296875 68.81640625 C-81.14756471 63.25485377 -74.32263622 57.61844265 -67.57519531 51.87841797 C-62.44142289 47.51327917 -57.23103586 43.24770815 -52 39 C-50.58589222 37.85031611 -49.17183328 36.70057214 -47.7578125 35.55078125 C-43.83979361 32.36564466 -39.92034357 29.18227473 -36 26 C-38.74782303 25.20007819 -41.49792299 24.41004761 -44.25 23.625 C-45.00796875 23.40328125 -45.7659375 23.1815625 -46.546875 22.953125 C-59.38585234 19.31541475 -71.85773134 18.52109954 -85.125 18.5 C-86.0068396 18.49798584 -86.8886792 18.49597168 -87.79724121 18.49389648 C-111.83712229 18.53087924 -133.90991025 23.75809848 -155.41015625 34.7421875 C-158 36 -158 36 -160.1875 35.9375 C-162.60731223 34.68587298 -163.67672977 33.36795726 -165 31 C-164 28 -164 28 -162.38378906 27.09619141 C-161.68479492 26.85046387 -160.98580078 26.60473633 -160.265625 26.3515625 C-159.47454346 26.07078857 -158.68346191 25.79001465 -157.8684082 25.50073242 C-157.0043335 25.21174072 -156.14025879 24.92274902 -155.25 24.625 C-154.35692139 24.32118408 -153.46384277 24.01736816 -152.54370117 23.7043457 C-117.19220674 11.99044184 -79.66523575 10.07399262 -43.640625 20.1328125 C-42.43921875 20.41898438 -41.2378125 20.70515625 -40 21 C-39.2795752 21.17345947 -38.55915039 21.34691895 -37.81689453 21.52563477 C-33.48759113 22.32522402 -30.84618084 22.35728825 -27.1484375 19.82421875 C-25.87180387 18.80171125 -24.6144886 17.75473147 -23.375 16.6875 C-22.00031947 15.57839773 -20.62263622 14.47300832 -19.2421875 13.37109375 C-18.19949707 12.52780518 -18.19949707 12.52780518 -17.13574219 11.66748047 C-13.71927179 9.0000716 -10.12573798 6.62107739 -6.5 4.25 C-5.84692871 3.82033936 -5.19385742 3.39067871 -4.52099609 2.94799805 C-3.01674729 1.96112769 -1.50882062 0.97986627 0 0 Z " fill="#E8200D" transform="translate(322,162)"/>
<path d="M0 0 C4.00041081 3.34596572 7.86819886 6.68838569 11.375 10.5625 C12.04273438 11.28566406 12.71046875 12.00882813 13.3984375 12.75390625 C15.17572598 15.24644497 15.72752973 16.96750679 16 20 C15.67 20.66 15.34 21.32 15 22 C14.34 22 13.68 22 13 22 C10.84216977 19.26323971 8.80768919 16.47440207 6.80859375 13.62109375 C5.37739327 11.60912166 5.37739327 11.60912166 3 9 C1.68 9 0.36 9 -1 9 C-3.00860149 11.07913253 -4.70394902 13.08170416 -6.4375 15.375 C-6.95828125 16.04837402 -7.4790625 16.72174805 -8.015625 17.41552734 C-9.69244607 19.59909655 -11.3469001 21.79843498 -13 24 C-13.53898926 24.70576172 -14.07797852 25.41152344 -14.63330078 26.13867188 C-27.01745263 42.39217156 -37.66786795 59.87642753 -45 79 C-45.35835938 79.92296875 -45.71671875 80.8459375 -46.0859375 81.796875 C-49.27069806 91.43881065 -50.22686477 104.43493334 -45.875 113.8125 C-41.96690405 120.20157822 -37.07954834 123.47158988 -30 126 C-16.39987128 128.80477432 -3.36081564 128.51069222 8.69921875 121.265625 C19.63121968 114.04482304 25.12012167 101.47256657 28 89 C28.77706219 84.9241974 29.11903341 81.09248114 29.09765625 76.9453125 C29.09443359 75.83671875 29.09121094 74.728125 29.08789062 73.5859375 C29.07951172 72.44382812 29.07113281 71.30171875 29.0625 70.125 C29.05798828 68.9596875 29.05347656 67.794375 29.04882812 66.59375 C29.03708781 63.72911355 29.0206657 60.86458367 29 58 C30.65 58.33 32.3 58.66 34 59 C34.05875981 63.12493872 34.09384938 67.24976768 34.125 71.375 C34.14175781 72.53128906 34.15851563 73.68757813 34.17578125 74.87890625 C34.27269953 92.03344205 29.60936935 108.05746337 17.625 120.75 C7.46543047 130.2925024 -5.039353 133.64680176 -18.80224609 133.47241211 C-29.85566701 133.00943499 -38.56313503 129.20095893 -46.4921875 121.5625 C-52.53475135 114.98361391 -54.39616206 106.04715386 -54.26953125 97.3671875 C-51.33202909 60.66969677 -23.50242262 26.38641953 0 0 Z " fill="#920100" transform="translate(329,212)"/>
<path d="M0 0 C3.58199256 1.22113383 6.51567932 2.97154037 9.75 4.9375 C8.19439439 8.82456744 5.79391586 10.89561948 2.67578125 13.63671875 C-4.09569166 19.72521574 -10.53377099 26.13192073 -16.95703125 32.58203125 C-17.48307827 33.10969967 -18.00912529 33.63736809 -18.55111313 34.18102646 C-22.39176618 38.03385005 -26.22767744 41.89137432 -30.0625 45.75 C-33.91917683 49.63047656 -37.77759974 53.50918634 -41.64026451 57.38370323 C-43.16436878 58.91419012 -44.68538418 60.44769863 -46.20625305 61.98139954 C-53.09326992 68.90515157 -60.06623616 75.52897665 -68 81.25 C-68.90234375 81.90613281 -69.8046875 82.56226563 -70.734375 83.23828125 C-74.64578406 85.88030445 -76.4289393 86.9375 -81.25 86.9375 C-80.67557555 83.10800366 -78.98810785 81.22729485 -76.375 78.4375 C-75.55902344 77.55835938 -74.74304688 76.67921875 -73.90234375 75.7734375 C-73.02707031 74.83757812 -72.15179688 73.90171875 -71.25 72.9375 C-69.93069856 71.47860034 -68.61141457 70.01968415 -67.29345703 68.55957031 C-62.49605584 63.26290771 -57.52965051 58.17335557 -52.44555664 53.15234375 C-49.81049206 50.53829108 -47.27346312 47.89485594 -44.875 45.0625 C-40.97672247 40.47290232 -36.65356649 36.31600323 -32.37695312 32.08398438 C-28.69250181 28.42322728 -25.17818024 24.69188371 -21.8203125 20.7265625 C-19.42778911 18.00075227 -16.82172932 15.50034809 -14.23828125 12.95703125 C-11.63074806 10.30851522 -9.20582517 7.5247252 -6.79296875 4.69921875 C-2.61365823 -0.07260162 -2.61365823 -0.07260162 0 0 Z " fill="#910100" transform="translate(305.25,195.0625)"/>
<path d="M0 0 C2.03308492 2.91703489 2.18017689 5.27502203 2.00390625 8.7890625 C0.52221331 14.73627141 -6.06598203 17.42129227 -10.9375 20.375 C-11.79085937 20.86613281 -12.64421875 21.35726563 -13.5234375 21.86328125 C-15.48688525 22.90320418 -15.48688525 22.90320418 -16.5625 24.0625 C-17.13646993 28.81825081 -17.21882347 31.86834862 -14.25 35.75 C-5.70349587 44.51667169 6.9834725 46.03534685 18.63061523 46.29370117 C27.05877024 46.36631703 35.12967694 45.53710568 43.4375 44.0625 C42.4375 47.0625 42.4375 47.0625 40.55859375 48.01171875 C25.49088051 52.15698484 5.62265754 52.67735996 -8.50390625 45.5859375 C-14.58325969 42.04032258 -18.97204071 38.1300009 -22.5625 32.0625 C-22.93632813 31.47597656 -23.31015625 30.88945312 -23.6953125 30.28515625 C-24.95421346 27.05851369 -24.86466769 24.13849123 -24.875 20.6875 C-24.89175781 19.40101563 -24.90851563 18.11453125 -24.92578125 16.7890625 C-24.28744448 10.2409627 -21.41375414 6.33622389 -16.5625 2.0625 C-11.63627937 -1.9058444 -5.83442581 -2.13454603 0 0 Z " fill="#EE220E" transform="translate(101.5625,238.9375)"/>
<path d="M0 0 C3.90966408 1.42036485 6.26049756 4.10693262 8.0859375 7.7578125 C8.38021018 11.33454472 8.36394304 14.92038842 8.3984375 18.5078125 C8.42744141 19.4978125 8.45644531 20.4878125 8.48632812 21.5078125 C8.53923175 27.59579935 8.20286317 31.15872436 4.0859375 35.7578125 C0.06735155 38.4368698 -3.19047971 38.45391944 -7.9140625 37.7578125 C-10.78436119 35.96387582 -12.40537888 34.77517974 -13.9140625 31.7578125 C-14.29239895 27.51550939 -14.33149472 23.26464043 -14.4140625 19.0078125 C-14.46820312 17.82703125 -14.52234375 16.64625 -14.578125 15.4296875 C-14.71163643 6.96124842 -14.71163643 6.96124842 -12.48291016 3.59838867 C-8.3774382 -0.15785805 -5.41512906 -1.0164918 0 0 Z " fill="#F1F1F1" transform="translate(672.9140625,204.2421875)"/>
<path d="M0 0 C1.81177734 -0.0141394 1.81177734 -0.0141394 3.66015625 -0.02856445 C11.69031552 0.00050648 19.35268213 0.80484679 27.25 2.25 C27.25 2.91 27.25 3.57 27.25 4.25 C26.11385254 4.24887207 24.97770508 4.24774414 23.80712891 4.24658203 C-7.52714314 4.28509617 -35.72593694 6.46565622 -64.16015625 20.9921875 C-66.75 22.25 -66.75 22.25 -68.9375 22.1875 C-71.35731223 20.93587298 -72.42672977 19.61795726 -73.75 17.25 C-72.75 14.25 -72.75 14.25 -71.13378906 13.34619141 C-70.43479492 13.10046387 -69.73580078 12.85473633 -69.015625 12.6015625 C-68.22454346 12.32078857 -67.43346191 12.04001465 -66.6184082 11.75073242 C-65.7543335 11.46174072 -64.89025879 11.17274902 -64 10.875 C-62.66038208 10.41927612 -62.66038208 10.41927612 -61.29370117 9.9543457 C-41.01766553 3.23577451 -21.32050824 0.1253038 0 0 Z " fill="#E9200D" transform="translate(230.75,175.75)"/>
<path d="M0 0 C2.31 0 4.62 0 7 0 C5.41078475 5.36095277 3.81027062 10.70843973 2 16 C2.886875 15.896875 3.77375 15.79375 4.6875 15.6875 C9.03938306 16.09805501 10.25973354 17.71168025 13 21 C14.77234774 24.54469549 14.02306495 28.26806498 13 32 C10.32146137 35.28120982 8.86424925 36.60356035 4.77734375 37.47265625 C0.41228204 37.75685893 -1.45879904 37.41717574 -5 34.6875 C-8.0248411 30.62286977 -8.64897269 26.94174923 -8 22 C-6.88226225 18.10312028 -5.45645062 14.34385914 -4 10.5625 C-3.6184375 9.54478516 -3.236875 8.52707031 -2.84375 7.47851562 C-1.90595809 4.98164465 -0.95785999 2.48922592 0 0 Z " fill="#F1C94B" transform="translate(664,246)"/>
<path d="M0 0 C2.60847629 1.49745861 4.87028902 2.87028902 7 5 C7.92500265 10.24558468 7.33435211 14.11960845 4.375 18.5625 C3.27010244 20.05674242 2.14449786 21.5358676 1 23 C-0.12526925 24.52063412 -1.25028454 26.04145623 -2.375 27.5625 C-3.24125 28.696875 -4.1075 29.83125 -5 31 C-0.71 31.33 3.58 31.66 8 32 C8 33.98 8 35.96 8 38 C0.74 38 -6.52 38 -14 38 C-14 31.25909295 -14 31.25909295 -11.19140625 27.6875 C-10.60939453 26.92179687 -10.02738281 26.15609375 -9.42773438 25.3671875 C-8.81220703 24.58601563 -8.19667969 23.80484375 -7.5625 23 C-2.01210503 16.28360176 -2.01210503 16.28360176 0 8 C-1.98 8 -3.96 8 -6 8 C-6.33 8.99 -6.66 9.98 -7 11 C-8.98 11 -10.96 11 -13 11 C-12.76683515 6.95847594 -12.5771041 4.66197236 -9.875 1.5625 C-6.20528171 -0.43191212 -4.12942195 -0.57956799 0 0 Z " fill="#F2CA4C" transform="translate(644,245)"/>
<path d="M0 0 C2.60847629 1.49745861 4.87028902 2.87028902 7 5 C7.92500265 10.24558468 7.33435211 14.11960845 4.375 18.5625 C3.27010244 20.05674242 2.14449786 21.5358676 1 23 C-0.12526925 24.52063412 -1.25028454 26.04145623 -2.375 27.5625 C-3.24125 28.696875 -4.1075 29.83125 -5 31 C-0.71 31.33 3.58 31.66 8 32 C8 33.98 8 35.96 8 38 C0.74 38 -6.52 38 -14 38 C-14 31.25909295 -14 31.25909295 -11.19140625 27.6875 C-10.60939453 26.92179687 -10.02738281 26.15609375 -9.42773438 25.3671875 C-8.81220703 24.58601563 -8.19667969 23.80484375 -7.5625 23 C-2.01210503 16.28360176 -2.01210503 16.28360176 0 8 C-1.98 8 -3.96 8 -6 8 C-6.33 8.99 -6.66 9.98 -7 11 C-8.98 11 -10.96 11 -13 11 C-12.76683515 6.95847594 -12.5771041 4.66197236 -9.875 1.5625 C-6.20528171 -0.43191212 -4.12942195 -0.57956799 0 0 Z " fill="#F5F5F5" transform="translate(644,204)"/>
<path d="M0 0 C-2.74576865 3.02813492 -6.04325469 5.23771036 -9.375 7.5625 C-26.10816771 19.39995639 -43.2888485 32.29854889 -57.1875 47.4375 C-60.42983665 50.39162895 -62.7951825 50.94879562 -67 52 C-69.13436576 53.20087392 -71.01811755 54.54984211 -73 56 C-71.50163895 52.88801935 -69.80066242 49.9465385 -68 47 C-68.7425 46.731875 -69.485 46.46375 -70.25 46.1875 C-72.86636554 45.05770579 -74.80187111 43.79106798 -77 42 C-75.515 41.505 -75.515 41.505 -74 41 C-73.030625 41.66 -72.06125 42.32 -71.0625 43 C-68.34471866 45.21490549 -68.34471866 45.21490549 -66.1171875 44.8671875 C-63.30896149 43.7169547 -61.38125588 42.08461023 -59.0625 40.125 C-57.60070312 38.90103516 -57.60070312 38.90103516 -56.109375 37.65234375 C-54.05079679 35.90203308 -52.00104551 34.14166497 -49.953125 32.37890625 C-38.60190089 22.63119416 -26.70470864 13.72533285 -14.375 5.25 C-13.25605347 4.4612146 -13.25605347 4.4612146 -12.11450195 3.65649414 C-7.94226654 0.840791 -5.22304841 -0.69201272 0 0 Z " fill="#E71F0D" transform="translate(383,153)"/>
<path d="M0 0 C6.27 0.33 12.54 0.66 19 1 C18.01 1.33 17.02 1.66 16 2 C16.26554687 2.64066406 16.53109375 3.28132812 16.8046875 3.94140625 C19.84049533 11.37581157 22.33311649 17.83864604 22 26 C14.54589852 25.48592404 10.54642497 23.72408252 5.3125 18.125 C0.28739335 11.33431534 0 9.10450598 0 0 Z " fill="#940201" transform="translate(346,243)"/>
<path d="M0 0 C13.2 0 26.4 0 40 0 C40 1.98 40 3.96 40 6 C39.05125 5.360625 38.1025 4.72125 37.125 4.0625 C32.26668671 1.32740987 32.26668671 1.32740987 23 1 C23.33 17.17 23.66 33.34 24 50 C21.36 50 18.72 50 16 50 C16.33 33.83 16.66 17.66 17 1 C7.47824549 1.8109453 7.47824549 1.8109453 0 6 C0 4.02 0 2.04 0 0 Z " fill="#DEDEDE" transform="translate(393,221)"/>
<path d="M0 0 C2.64 0 5.28 0 8 0 C7.67 16.17 7.34 32.34 7 49 C18.10302788 48.48558011 18.10302788 48.48558011 27.29296875 44.83984375 C29 44 29 44 31 44 C31 45.98 31 47.96 31 50 C20.77 50 10.54 50 0 50 C0 33.5 0 17 0 0 Z " fill="#F3F3F3" transform="translate(518,221)"/>
<path d="M0 0 C3.63 0 7.26 0 11 0 C11.350625 1.27875 11.70125 2.5575 12.0625 3.875 C13.95770475 9.6618145 17.33936038 14.19603733 21 19 C22.32 18.34 23.64 17.68 25 17 C24.60925293 17.72002197 24.21850586 18.44004395 23.81591797 19.18188477 C22.67857982 21.98697632 22.67857982 21.98697632 24.08642578 24.49194336 C24.6998584 25.34925049 25.31329102 26.20655762 25.9453125 27.08984375 C26.61046875 28.03923828 27.275625 28.98863281 27.9609375 29.96679688 C28.67507813 30.94712891 29.38921875 31.92746094 30.125 32.9375 C31.16140625 34.40219727 31.16140625 34.40219727 32.21875 35.89648438 C33.5495941 37.77674783 34.88688309 39.6524709 36.23144531 41.52294922 C38.22065761 44.30905469 40.12823581 47.13416415 42 50 C38.7 50 35.4 50 32 50 C31.59523438 48.82050781 31.19046875 47.64101563 30.7734375 46.42578125 C29.22675966 42.31544428 27.1337824 38.77932245 24.625 35.1875 C23.98667236 34.25176147 23.98667236 34.25176147 23.33544922 33.29711914 C22.4044061 31.93448315 21.46951205 30.57447226 20.53125 29.21679688 C18.87707345 26.82203873 17.23456001 24.41955949 15.59375 22.015625 C12.86234877 18.01484461 10.12266447 14.01983942 7.37988281 10.02685547 C6.14856305 8.2182184 4.94147703 6.39634711 3.7421875 4.56640625 C2.10079315 1.97553348 2.10079315 1.97553348 0 0 Z " fill="#F1F1F1" transform="translate(568,221)"/>
<path d="M0 0 C0.66 0.33 1.32 0.66 2 1 C0.8553125 2.1446875 0.8553125 2.1446875 -0.3125 3.3125 C-3.9188991 7.56436257 -4.83207739 12.66363817 -6 18 C-3.39547729 17.85913398 -0.79149803 17.71251536 1.8125 17.5625 C2.91948242 17.50352539 2.91948242 17.50352539 4.04882812 17.44335938 C7.23071342 17.25618965 9.96162378 17.01279207 13 16 C15.33299825 15.96045766 17.66708189 15.95598268 20 16 C20 17.98 20 19.96 20 22 C19.02675781 21.8453125 18.05351562 21.690625 17.05078125 21.53125 C12.01264669 20.81061025 6.95647867 20.62639463 1.87695312 20.39453125 C-3.79241071 20.10379464 -3.79241071 20.10379464 -6 19 C-5.63039537 26.7616973 -3.85410023 32.74184087 1.453125 38.60546875 C7.74847175 44.25471412 14.95601921 44.45610094 23 45 C18.10124406 48.2658373 12.72526377 47.54881227 7 47 C-0.87591913 44.6835532 -5.90901902 38.91234718 -10 32 C-12.92817876 25.26518886 -12.79267945 19.54959948 -10.25 12.8125 C-7.85167724 7.30649141 -5.00608408 3.39698562 0 0 Z " fill="#EEEAE9" transform="translate(352,224)"/>
<path d="M0 0 C1.65 0 3.3 0 5 0 C9.48769972 11.58410293 13.55831878 23.30287166 17.57177734 35.05737305 C17.98637207 36.26949463 18.4009668 37.48161621 18.828125 38.73046875 C19.1984082 39.81739014 19.56869141 40.90431152 19.95019531 42.02416992 C20.89947591 44.71504928 21.91779463 47.36021373 23 50 C20.36 50 17.72 50 15 50 C14.83564453 49.14728516 14.83564453 49.14728516 14.66796875 48.27734375 C13.62063209 43.17689934 12.06667644 38.79468935 10 34 C9.20077788 31.24620358 8.47784187 28.47757985 7.75390625 25.703125 C6.91341451 22.68954841 5.83919634 19.83365439 4.6953125 16.92578125 C3.52360673 13.68055124 2.77964839 10.35848538 2 7 C1.34 7 0.68 7 0 7 C-0.2475 8.258125 -0.495 9.51625 -0.75 10.8125 C-1.97833802 16.40232809 -3.94687375 21.66785174 -6 27 C-5.07767578 26.94779297 -5.07767578 26.94779297 -4.13671875 26.89453125 C-3.32847656 26.86746094 -2.52023437 26.84039062 -1.6875 26.8125 C-0.48673828 26.76029297 -0.48673828 26.76029297 0.73828125 26.70703125 C3.47851584 27.06198392 4.29171079 27.89366282 6 30 C5.43796875 29.83628906 4.8759375 29.67257813 4.296875 29.50390625 C1.86940944 28.97135003 -0.26889681 28.90101319 -2.75 28.9375 C-3.94882812 28.95103516 -3.94882812 28.95103516 -5.171875 28.96484375 C-5.77515625 28.97644531 -6.3784375 28.98804688 -7 29 C-7.66 30.32 -8.32 31.64 -9 33 C-7.74848773 26.75540768 -6.04216593 20.81924729 -3.9375 14.8125 C-2.21162118 9.88319142 -0.6728889 5.2086585 0 0 Z " fill="#F0F0F0" transform="translate(455,221)"/>
<path d="M0 0 C0.99 0.495 0.99 0.495 2 1 C2 1.99 2 2.98 2 4 C0.234375 5.65625 0.234375 5.65625 -2.25 7.5 C-7.04453198 11.1812717 -11.4831263 15.10171846 -15.88769531 19.23046875 C-23.14146326 26 -23.14146326 26 -28 26 C-28.33 26.66 -28.66 27.32 -29 28 C-30.66128463 28.35919668 -32.32900023 28.68911632 -34 29 C-36.23408113 29.99083967 -36.23408113 29.99083967 -38 31 C-37.34 29.35 -36.68 27.7 -36 26 C-45.93495435 23.1078244 -55.71313264 20.35141199 -66 19 C-65.34 18.67 -64.68 18.34 -64 18 C-64 17.34 -64 16.68 -64 16 C-57.82284444 16.66110026 -52.07010414 17.90593596 -46.08789062 19.5390625 C-44.0662597 20.07075739 -42.040762 20.54742708 -40 21 C-39.26072266 21.17635986 -38.52144531 21.35271973 -37.75976562 21.53442383 C-33.44430478 22.33182591 -30.83478339 22.34426582 -27.1484375 19.82421875 C-25.87180387 18.80171125 -24.6144886 17.75473147 -23.375 16.6875 C-22.00031947 15.57839773 -20.62263622 14.47300832 -19.2421875 13.37109375 C-18.54706055 12.80890137 -17.85193359 12.24670898 -17.13574219 11.66748047 C-13.71927179 9.0000716 -10.12573798 6.62107739 -6.5 4.25 C-5.84692871 3.82033936 -5.19385742 3.39067871 -4.52099609 2.94799805 C-3.01674729 1.96112769 -1.50882062 0.97986627 0 0 Z " fill="#E51F0D" transform="translate(322,162)"/>
<path d="M0 0 C2.97 0 5.94 0 9 0 C8.67 0.66 8.34 1.32 8 2 C7.88194823 3.5107757 7.82303551 5.02638831 7.79467773 6.54150391 C7.77473251 7.48232819 7.75478729 8.42315247 7.73423767 9.39248657 C7.71752518 10.41023163 7.70081268 11.42797668 7.68359375 12.4765625 C7.66281265 13.51694672 7.64203156 14.55733093 7.62062073 15.62924194 C7.55510128 18.96109249 7.49622908 22.2930235 7.4375 25.625 C7.39431706 27.88021674 7.35070285 30.13542527 7.30664062 32.390625 C7.19941748 37.92699764 7.09765554 43.46345078 7 49 C9.5633422 48.7066916 12.12550086 48.40620404 14.6875 48.1015625 C15.40873047 48.0197876 16.12996094 47.9380127 16.87304688 47.85375977 C21.9726506 47.23959516 26.30465785 46.15203182 31 44 C31 45.98 31 47.96 31 50 C20.77 50 10.54 50 0 50 C0.33 49.01 0.66 48.02 1 47 C1.09128131 45.52228915 1.12789732 44.04082946 1.12939453 42.56030273 C1.13254669 41.66605087 1.13569885 40.77179901 1.13894653 39.85044861 C1.1369223 38.88788651 1.13489807 37.9253244 1.1328125 36.93359375 C1.13376923 35.94375992 1.13472595 34.95392609 1.13571167 33.93409729 C1.13639219 31.84188778 1.13454683 29.74967616 1.13037109 27.6574707 C1.1250154 24.44672939 1.13032335 21.23612761 1.13671875 18.02539062 C1.13605806 15.99479136 1.13477708 13.96419218 1.1328125 11.93359375 C1.13483673 10.96900742 1.13686096 10.00442108 1.13894653 9.01060486 C1.13579437 8.11950516 1.13264221 7.22840546 1.12939453 6.31030273 C1.12859894 5.52437241 1.12780334 4.73844208 1.12698364 3.92869568 C1.11958394 1.91626258 1.11958394 1.91626258 0 0 Z " fill="#FBFBFB" transform="translate(482,221)"/>
<path d="M0 0 C2.64 0 5.28 0 8 0 C8 16.5 8 33 8 50 C5.36 50 2.72 50 0 50 C0 33.5 0 17 0 0 Z " fill="#E0E0E0" transform="translate(553,221)"/>
<path d="M0 0 C1.32 0.33 2.64 0.66 4 1 C3.34 1 2.68 1 2 1 C2.15936035 1.57999756 2.3187207 2.15999512 2.48291016 2.75756836 C6.21040104 18.92234823 1.51464835 38.07731137 -6.2734375 52.35546875 C-13.93359778 64.08833869 -23.78021522 71.57382021 -37 76 C-37.99 76 -38.98 76 -40 76 C-40 75.34 -40 74.68 -40 74 C-40.66 73.67 -41.32 73.34 -42 73 C-41.10539062 72.79246094 -40.21078125 72.58492188 -39.2890625 72.37109375 C-26.85624708 69.20324419 -17.56321565 63.60200765 -10 53 C-8.02184419 49.43519839 -6.44734719 45.80822912 -5 42 C-4.69191406 41.19046875 -4.38382812 40.3809375 -4.06640625 39.546875 C-0.91324422 30.67577799 -0.74840656 21.90498722 -0.4375 12.5625 C-0.37272461 10.74975586 -0.37272461 10.74975586 -0.30664062 8.90039062 C-0.20110596 5.93369394 -0.09899286 2.96692098 0 0 Z " fill="#E71F0D" transform="translate(363,271)"/>
<path d="M0 0 C2.5 0.25 2.5 0.25 4.5 2.25 C4.75878906 4.46484375 4.75878906 4.46484375 4.765625 7.1875 C4.76820313 8.16460937 4.77078125 9.14171875 4.7734375 10.1484375 C4.76570312 11.17195312 4.75796875 12.19546875 4.75 13.25 C4.75773438 14.27351562 4.76546875 15.29703125 4.7734375 16.3515625 C4.77085937 17.32867187 4.76828125 18.30578125 4.765625 19.3125 C4.76336914 20.21097656 4.76111328 21.10945313 4.75878906 22.03515625 C4.5 24.25 4.5 24.25 2.5 26.25 C0 26.5 0 26.5 -2.5 26.25 C-5.03054337 23.71945663 -4.75683229 22.81451118 -4.765625 19.3125 C-4.76820313 18.33539063 -4.77078125 17.35828125 -4.7734375 16.3515625 C-4.76570312 15.32804688 -4.75796875 14.30453125 -4.75 13.25 C-4.75773438 12.22648438 -4.76546875 11.20296875 -4.7734375 10.1484375 C-4.77085937 9.17132813 -4.76828125 8.19421875 -4.765625 7.1875 C-4.76336914 6.28902344 -4.76111328 5.39054688 -4.75878906 4.46484375 C-4.36909589 1.12965838 -3.28849768 0.32884977 0 0 Z " fill="#030303" transform="translate(669.5,209.75)"/>
<path d="M0 0 C0.66 0 1.32 0 2 0 C2.31453125 0.96679688 2.6290625 1.93359375 2.953125 2.9296875 C5.19473135 9.76531174 7.49137536 16.51522171 10.30078125 23.14453125 C11 25 11 25 11 27 C8.47570615 25.91815978 7.07463321 25.09121837 5.3125 22.9375 C1.88855427 20.06878871 -1.6502953 20.18588482 -6 20 C-4.22089072 13.24947898 -2.29561809 6.59379663 0 0 Z " fill="#0D0D0D" transform="translate(455,228)"/>
<path d="M0 0 C3.63 0 7.26 0 11 0 C10.01 0.33 9.02 0.66 8 1 C8.26554687 1.64066406 8.53109375 2.28132812 8.8046875 2.94140625 C11.84049533 10.37581157 14.33311649 16.83864604 14 25 C11.36 24.67 8.72 24.34 6 24 C5.9071875 22.1746875 5.9071875 22.1746875 5.8125 20.3125 C5.22584053 14.73034624 3.1876898 9.87953195 1.05859375 4.72265625 C0 2 0 2 0 0 Z " fill="#910505" transform="translate(354,244)"/>
<path d="M0 0 C0.66 0.33 1.32 0.66 2 1 C1.53215088 1.35715088 1.06430176 1.71430176 0.58227539 2.08227539 C-3.93526721 5.53170176 -8.44996886 8.98481069 -12.96240234 12.44091797 C-14.5315623 13.64157163 -16.10315712 14.83904359 -17.67578125 16.03515625 C-30.06211905 25.52901592 -42.10759647 35.82095427 -53 47 C-53.99 46.67 -54.98 46.34 -56 46 C-52.00538461 36.50216446 -39.99535005 29.69907343 -31.9609375 23.51074219 C-29.89726333 21.92084978 -27.83935314 20.32365805 -25.78125 18.7265625 C-17.35896176 12.21541287 -8.832755 5.94482815 0 0 Z " fill="#9F0401" transform="translate(376,156)"/>
<path d="M0 0 C8 9.42857143 8 9.42857143 8 14 C8.99 14.33 9.98 14.66 11 15 C5.72 15 0.44 15 -5 15 C-4.61397183 8.63053521 -3.97741972 5.00385061 0 0 Z " fill="#950B0A" transform="translate(351,227)"/>
<path d="M0 0 C0.99 0.33 1.98 0.66 3 1 C1.45615972 4.68994791 -0.78813943 7.0239451 -3.625 9.8125 C-4.85089844 11.02873047 -4.85089844 11.02873047 -6.1015625 12.26953125 C-8.279513 14.32126629 -10.47569385 16.28556387 -12.7421875 18.234375 C-17.55298868 22.41301305 -22.01989281 26.90996497 -26.5 31.4375 C-27.73363281 32.67790039 -27.73363281 32.67790039 -28.9921875 33.94335938 C-30.99712113 35.95994959 -32.99966253 37.97885236 -35 40 C-35 37 -35 37 -33.55053711 35.22583008 C-32.8828833 34.58025146 -32.21522949 33.93467285 -31.52734375 33.26953125 C-30.42422852 32.18768555 -30.42422852 32.18768555 -29.29882812 31.08398438 C-28.51958984 30.33439453 -27.74035156 29.58480469 -26.9375 28.8125 C-21.94388213 23.96436885 -17.08283838 19.11027478 -12.57714844 13.80029297 C-10.89839946 11.8840244 -9.13094515 10.096014 -7.3125 8.3125 C-4.64682 5.69485027 -2.26012921 2.98337056 0 0 Z " fill="#100000" transform="translate(304,200)"/>
<path d="M0 0 C0.66 0.33 1.32 0.66 2 1 C-3.879102 6.48921391 -9.79613718 11.92910585 -15.9375 17.125 C-16.79214844 17.84945312 -17.64679688 18.57390625 -18.52734375 19.3203125 C-21.1354474 21.09201008 -22.85982752 21.8193471 -26 22 C-26.66 21.34 -27.32 20.68 -28 20 C-18.96699445 12.84061955 -9.66287896 6.28153957 0 0 Z " fill="#9A0201" transform="translate(320,166)"/>
<path d="M0 0 C0.33 0 0.66 0 1 0 C1 15.18 1 30.36 1 46 C12.10302788 45.48558011 12.10302788 45.48558011 21.29296875 41.83984375 C23 41 23 41 25 41 C25 42.98 25 44.96 25 47 C16.75 47 8.5 47 0 47 C0 31.49 0 15.98 0 0 Z " fill="#B1B1B1" transform="translate(524,224)"/>
<path d="M0 0 C2.375 2.625 2.375 2.625 2.25 5.9375 C1.816875 7.2678125 1.816875 7.2678125 1.375 8.625 C-1.625 7.625 -1.625 7.625 -3.8125 4.3125 C-6.70668237 0.15104251 -9.70516714 -2.05504484 -14.625 -3.375 C-18.65119948 -3.67634745 -22.59715546 -3.61667067 -26.625 -3.375 C-19.19028632 -10.80971368 -7.12131564 -5.09371883 0 0 Z " fill="#D6D6D6" transform="translate(382.625,226.375)"/>
<path d="M0 0 C3 1 3 1 4.5703125 3.9140625 C5.09990118 5.14622108 5.61769354 6.38350128 6.125 7.625 C6.64320313 8.83414063 7.16140625 10.04328125 7.6953125 11.2890625 C8.99869199 14.9962796 9.59096412 18.11914737 10 22 C5.05186601 18.4013571 1.83242403 14.93958135 0 9 C-0.29239266 5.96288918 -0.25316724 3.03800686 0 0 Z " fill="#0D0707" transform="translate(346,243)"/>
<path d="M0 0 C0.33 0.99 0.66 1.98 1 3 C3.60452271 2.85913398 6.20850197 2.71251536 8.8125 2.5625 C9.55048828 2.52318359 10.28847656 2.48386719 11.04882812 2.44335938 C14.23071342 2.25618965 16.96162378 2.01279207 20 1 C22.33299825 0.96045766 24.66708189 0.95598268 27 1 C27 2.98 27 4.96 27 7 C26.02675781 6.8453125 25.05351562 6.690625 24.05078125 6.53125 C19.01264669 5.81061025 13.95647867 5.62639463 8.87695312 5.39453125 C3.20758929 5.10379464 3.20758929 5.10379464 1 4 C1 5.65 1 7.3 1 9 C0.67 9 0.34 9 0 9 C0 6.03 0 3.06 0 0 Z " fill="#D7CBCB" transform="translate(345,239)"/>
<path d="M0 0 C2.33944736 0.28730055 4.6739143 0.61936779 7 1 C7.625 3.3125 7.625 3.3125 8 6 C7.01 7.485 7.01 7.485 6 9 C3 9.3125 3 9.3125 0 9 C-0.66 8.34 -1.32 7.68 -2 7 C-1.43181818 1.43181818 -1.43181818 1.43181818 0 0 Z " fill="#120F05" transform="translate(664,268)"/>
<path d="M0 0 C3 1 3 1 4.0625 2.93359375 C10 18.79166667 10 18.79166667 10 24 C8.68 23.67 7.36 23.34 6 23 C5.85304688 21.98292969 5.85304688 21.98292969 5.703125 20.9453125 C4.73325707 14.90872076 3.26043899 9.59771666 0.8046875 3.99609375 C0 2 0 2 0 0 Z " fill="#E5200E" transform="translate(354,244)"/>
<path d="M0 0 C0.66 1.32 1.32 2.64 2 4 C1.34 4 0.68 4 0 4 C-0.2475 5.258125 -0.495 6.51625 -0.75 7.8125 C-1.97833802 13.40232809 -3.94687375 18.66785174 -6 24 C-5.07767578 23.94779297 -5.07767578 23.94779297 -4.13671875 23.89453125 C-3.32847656 23.86746094 -2.52023437 23.84039062 -1.6875 23.8125 C-0.48673828 23.76029297 -0.48673828 23.76029297 0.73828125 23.70703125 C3.47851584 24.06198392 4.29171079 24.89366282 6 27 C5.43796875 26.83628906 4.8759375 26.67257813 4.296875 26.50390625 C1.86940944 25.97135003 -0.26889681 25.90101319 -2.75 25.9375 C-3.94882812 25.95103516 -3.94882812 25.95103516 -5.171875 25.96484375 C-5.77515625 25.97644531 -6.3784375 25.98804688 -7 26 C-7.66 27.32 -8.32 28.64 -9 30 C-7.60152532 23.11357167 -5.64985223 16.58173303 -3.375 9.9375 C-3.05015625 8.97650391 -2.7253125 8.01550781 -2.390625 7.02539062 C-1.59788808 4.68215356 -0.80095424 2.34043824 0 0 Z " fill="#909090" transform="translate(455,224)"/>
<path d="M0 0 C0 1.98 0 3.96 0 6 C-7.92 6 -15.84 6 -24 6 C-24 5.67 -24 5.34 -24 5 C-22.38931641 4.83564453 -22.38931641 4.83564453 -20.74609375 4.66796875 C-19.3098322 4.50838413 -17.87363767 4.34819558 -16.4375 4.1875 C-15.73302734 4.11724609 -15.02855469 4.04699219 -14.30273438 3.97460938 C-9.64848244 3.43840524 -4.25208563 0 0 0 Z " fill="#E5E5E5" transform="translate(513,265)"/>
<path d="M0 0 C1.32 0.33 2.64 0.66 4 1 C3.34 1 2.68 1 2 1 C2.16298584 1.5662207 2.32597168 2.13244141 2.49389648 2.71582031 C3.01684172 5.07601117 3.11396742 7.13282157 3.09765625 9.546875 C3.09443359 10.39121094 3.09121094 11.23554688 3.08789062 12.10546875 C3.07951172 12.97816406 3.07113281 13.85085938 3.0625 14.75 C3.05798828 15.63816406 3.05347656 16.52632813 3.04882812 17.44140625 C3.037074 19.62767329 3.02064249 21.81380179 3 24 C2.01 23.34 1.02 22.68 0 22 C-0.34057617 19.75341797 -0.34057617 19.75341797 -0.29296875 16.9921875 C-0.28330078 16.00605469 -0.27363281 15.01992188 -0.26367188 14.00390625 C-0.23853516 12.97136719 -0.21339844 11.93882812 -0.1875 10.875 C-0.17396484 9.83472656 -0.16042969 8.79445313 -0.14648438 7.72265625 C-0.11105228 5.14792373 -0.06165221 2.5742167 0 0 Z " fill="#D31A0C" transform="translate(363,271)"/>
<path d="M0 0 C5.94 0 11.88 0 18 0 C18 1.98 18 3.96 18 6 C17.071875 5.360625 16.14375 4.72125 15.1875 4.0625 C10.40781996 1.27927068 5.42265163 1.1961176 0 1 C0 0.67 0 0.34 0 0 Z " fill="#EBEBEB" transform="translate(415,221)"/>
<path d="M0 0 C5.61 0 11.22 0 17 0 C17 0.33 17 0.66 17 1 C16.03900391 1.03867188 16.03900391 1.03867188 15.05859375 1.078125 C8.9410516 1.4792753 5.0874978 2.57146888 0 6 C0 4.02 0 2.04 0 0 Z " fill="#E9E9E9" transform="translate(393,221)"/>
<path d="M0 0 C2.79872437 2.52788007 4.45773019 4.20411134 5 8 C3.02 8 1.04 8 -1 8 C-0.67 5.36 -0.34 2.72 0 0 Z " fill="#8E0201" transform="translate(347,234)"/>
<path d="M0 0 C1.65 0 3.3 0 5 0 C3.44396229 3.81936528 1.04395069 6.26044438 -2 9 C-2.66 9 -3.32 9 -4 9 C-3.71125 8.443125 -3.4225 7.88625 -3.125 7.3125 C-1.9586747 4.91505355 -0.9660119 2.48403061 0 0 Z " fill="#848484" transform="translate(603,221)"/>
<path d="M0 0 C3.81300782 3.2870757 5.22972246 6.39727838 7 11 C6.01 11 5.02 11 4 11 C3.1361871 9.54735962 2.28419546 8.0876837 1.4375 6.625 C0.72400391 5.40683594 0.72400391 5.40683594 -0.00390625 4.1640625 C-0.33261719 3.44992188 -0.66132813 2.73578125 -1 2 C-0.67 1.34 -0.34 0.68 0 0 Z " fill="#E72412" transform="translate(348,231)"/>
<path d="M0 0 C0.33 0 0.66 0 1 0 C1.33 2.64 1.66 5.28 2 8 C0.02 8 -1.96 8 -4 8 C-2.68 5.36 -1.36 2.72 0 0 Z " fill="#C5C5C5" transform="translate(442,263)"/>
<path d="M0 0 C0 3 0 3 -1 6 C-2.98 6 -4.96 6 -7 6 C-6.21625 5.38125 -5.4325 4.7625 -4.625 4.125 C-2.03162353 2.10141339 -2.03162353 2.10141339 0 0 Z " fill="#D4D4D4" transform="translate(572,265)"/>
<path d="M0 0 C0.66 0.33 1.32 0.66 2 1 C-1.61328125 5.6875 -1.61328125 5.6875 -3 7 C-3.99 7 -4.98 7 -6 7 C-4.60667426 3.63279613 -3.0210714 2.0140476 0 0 Z " fill="#E5D2D1" transform="translate(352,224)"/>
</svg>
